<svg xmlns="http://www.w3.org/2000/svg" width="412" height="732" viewBox="0 0 412 732" version="1.1"><path d="M 0 366.002 L 0 732.005 206.250 731.752 L 412.500 731.500 412.751 365.750 L 413.003 0 206.501 0 L 0 0 0 366.002 M 0.495 366.500 C 0.495 567.800, 0.610 650.001, 0.750 549.169 C 0.890 448.336, 0.890 283.636, 0.750 183.169 C 0.610 82.701, 0.495 165.200, 0.495 366.500 M 82.223 309.557 L 80 311.113 80 354.857 C 80 406.374, 78.137 401, 96 401 C 113.863 401, 112 406.374, 112 354.857 L 112 311.113 109.777 309.557 C 108.077 308.366, 104.840 308, 96 308 C 87.160 308, 83.923 308.366, 82.223 309.557 M 301.223 309.557 L 299 311.113 299 354.857 C 299 406.386, 297.124 401, 315.078 401 C 333.380 401, 331.500 406.292, 331.500 354.759 L 331.500 311.824 329.139 309.912 C 325.954 307.332, 304.783 307.063, 301.223 309.557 M 54.571 323.571 C 53.222 324.921, 53 328.872, 53 351.500 C 53 382.776, 52.333 381, 64.071 381 L 72 381 72 351.500 L 72 322 64.071 322 C 58.197 322, 55.736 322.407, 54.571 323.571 M 339 351.500 L 339 381 346.566 381 C 350.727 381, 355.002 380.534, 356.066 379.965 L 358 378.930 358 352.036 C 358 320.151, 358.682 322, 346.929 322 L 339 322 339 351.500 M 125.619 341.983 C 113.637 345.784, 113.221 363.121, 124.996 367.998 C 128.762 369.558, 136.087 368.828, 139.570 366.546 L 142.168 364.844 140.458 362.954 L 138.747 361.063 136.651 362.532 C 130.854 366.592, 122 361.948, 122 354.846 C 122 348.190, 131.482 343.411, 136.207 347.687 L 138.071 349.374 140.100 347.344 L 142.130 345.315 139.572 343.639 C 136.429 341.580, 129.488 340.756, 125.619 341.983 M 209.500 342.412 C 198.756 347.187, 198.010 362.455, 208.283 367.330 C 218.769 372.306, 229.987 366.039, 229.996 355.200 C 230.005 344.646, 219.383 338.019, 209.500 342.412 M 235.450 342.270 C 235.167 343.008, 235.062 349.211, 235.218 356.055 L 235.500 368.500 238.750 368.813 L 242 369.127 242 364.063 L 242 359 248.500 359 L 255 359 255 356.500 L 255 354 248.500 354 L 242 354 242 350 L 242 346 249.570 346 L 257.139 346 256.820 343.750 L 256.500 341.500 246.232 341.215 C 238.366 340.996, 235.844 341.243, 235.450 342.270 M 261 355 L 261 369 264 369 L 267 369 267 355 L 267 341 264 341 L 261 341 261 355 M 271 343.968 L 271 347 275.250 346.999 L 279.500 346.998 279.500 357.749 L 279.500 368.500 282.750 368.813 L 286 369.127 286 358.121 L 286 347.115 290.250 346.807 L 294.500 346.500 294.500 344 L 294.500 341.500 282.750 341.218 L 271 340.937 271 343.968 M 147 355.566 L 147 369.133 149.750 368.816 C 152.138 368.542, 152.541 368.006, 152.810 364.750 L 153.121 361 156.310 361.038 C 158.878 361.069, 160.034 361.848, 162.240 365.038 C 166.854 371.707, 171.873 370.788, 167.438 364.086 L 164.876 360.215 167.438 357.653 C 171.254 353.837, 171.026 348.041, 166.923 344.589 L 163.847 342 155.423 342 L 147 342 147 355.566 M 176.221 355.250 L 176.500 368.500 186.500 368.500 L 196.500 368.500 196.820 366.250 L 197.139 364 189.570 364 L 182 364 182 360.500 L 182 357 188.500 357 L 195 357 195 355 L 195 353 188.500 353 L 182 353 182 349.500 L 182 346 189 346 L 196 346 196 344 L 196 342 185.971 342 L 175.942 342 176.221 355.250 M 153 351 L 153 356 157.300 356 C 162.104 356, 164 354.686, 164 351.357 C 164 348.465, 160.447 346, 156.277 346 L 153 346 153 351 M 209.923 348.923 C 205.317 353.530, 206.120 359.873, 211.684 362.837 C 217.611 365.993, 224.025 362.055, 223.968 355.295 C 223.898 346.871, 215.696 343.150, 209.923 348.923" stroke="none" fill="#f6f8fc" fill-rule="evenodd"/><path d="M 125.619 341.983 C 113.637 345.784, 113.221 363.121, 124.996 367.998 C 128.762 369.558, 136.087 368.828, 139.570 366.546 L 142.168 364.844 140.458 362.954 L 138.747 361.063 136.651 362.532 C 130.854 366.592, 122 361.948, 122 354.846 C 122 348.190, 131.482 343.411, 136.207 347.687 L 138.071 349.374 140.100 347.344 L 142.130 345.315 139.572 343.639 C 136.429 341.580, 129.488 340.756, 125.619 341.983 M 209.500 342.412 C 198.756 347.187, 198.010 362.455, 208.283 367.330 C 218.769 372.306, 229.987 366.039, 229.996 355.200 C 230.005 344.646, 219.383 338.019, 209.500 342.412 M 147 355.566 L 147 369.133 149.750 368.816 C 152.138 368.542, 152.541 368.006, 152.810 364.750 L 153.121 361 156.310 361.038 C 158.878 361.069, 160.034 361.848, 162.240 365.038 C 166.854 371.707, 171.873 370.788, 167.438 364.086 L 164.876 360.215 167.438 357.653 C 171.254 353.837, 171.026 348.041, 166.923 344.589 L 163.847 342 155.423 342 L 147 342 147 355.566 M 176.221 355.250 L 176.500 368.500 186.500 368.500 L 196.500 368.500 196.820 366.250 L 197.139 364 189.570 364 L 182 364 182 360.500 L 182 357 188.500 357 L 195 357 195 355 L 195 353 188.500 353 L 182 353 182 349.500 L 182 346 189 346 L 196 346 196 344 L 196 342 185.971 342 L 175.942 342 176.221 355.250 M 153 351 L 153 356 157.300 356 C 162.104 356, 164 354.686, 164 351.357 C 164 348.465, 160.447 346, 156.277 346 L 153 346 153 351 M 209.923 348.923 C 205.317 353.530, 206.120 359.873, 211.684 362.837 C 217.611 365.993, 224.025 362.055, 223.968 355.295 C 223.898 346.871, 215.696 343.150, 209.923 348.923" stroke="none" fill="#ff1c98" fill-rule="evenodd"/><path d="M 82.223 309.557 L 80 311.113 80 354.857 C 80 406.374, 78.137 401, 96 401 C 113.863 401, 112 406.374, 112 354.857 L 112 311.113 109.777 309.557 C 108.077 308.366, 104.840 308, 96 308 C 87.160 308, 83.923 308.366, 82.223 309.557 M 301.223 309.557 L 299 311.113 299 354.857 C 299 406.386, 297.124 401, 315.078 401 C 333.380 401, 331.500 406.292, 331.500 354.759 L 331.500 311.824 329.139 309.912 C 325.954 307.332, 304.783 307.063, 301.223 309.557 M 54.571 323.571 C 53.222 324.921, 53 328.872, 53 351.500 C 53 382.776, 52.333 381, 64.071 381 L 72 381 72 351.500 L 72 322 64.071 322 C 58.197 322, 55.736 322.407, 54.571 323.571 M 339 351.500 L 339 381 346.566 381 C 350.727 381, 355.002 380.534, 356.066 379.965 L 358 378.930 358 352.036 C 358 320.151, 358.682 322, 346.929 322 L 339 322 339 351.500 M 235.450 342.270 C 235.167 343.008, 235.062 349.211, 235.218 356.055 L 235.500 368.500 238.750 368.813 L 242 369.127 242 364.063 L 242 359 248.500 359 L 255 359 255 356.500 L 255 354 248.500 354 L 242 354 242 350 L 242 346 249.570 346 L 257.139 346 256.820 343.750 L 256.500 341.500 246.232 341.215 C 238.366 340.996, 235.844 341.243, 235.450 342.270 M 261 355 L 261 369 264 369 L 267 369 267 355 L 267 341 264 341 L 261 341 261 355 M 271 343.968 L 271 347 275.250 346.999 L 279.500 346.998 279.500 357.749 L 279.500 368.500 282.750 368.813 L 286 369.127 286 358.121 L 286 347.115 290.250 346.807 L 294.500 346.500 294.500 344 L 294.500 341.500 282.750 341.218 L 271 340.937 271 343.968" stroke="none" fill="#5572bd" fill-rule="evenodd"/></svg>